<?xml version="1.0" encoding="utf-8"?><svg xml:space="preserve" viewBox="0 0 100 100" y="0" x="0" xmlns="http://www.w3.org/2000/svg" id="圖層_1" version="1.1" width="233px" height="233px" xmlns:xlink="http://www.w3.org/1999/xlink" style="width:100%;height:100%;background-size:initial;background-repeat-y:initial;background-repeat-x:initial;background-position-y:initial;background-position-x:initial;background-origin:initial;background-color:initial;background-clip:initial;background-attachment:initial;animation-play-state:paused" ><g class="ldl-scale" style="transform-origin:50% 50%;transform:rotate(0deg) scale(0.8, 0.8);animation-play-state:paused" ><path d="M35.822 7.501H7.5v28.304h28.322V7.501zm-3.398 24.908H10.898V10.898h21.526v21.511z" id="XMLID_362_" style="animation-play-state:paused" ></path>
<path d="M14.862 14.86h13.592v13.586H14.862z" id="XMLID_365_" style="animation-play-state:paused" ></path>
<path d="M92.466 7.501H64.144v28.304h28.322V7.501zm-3.398 24.908H67.542V10.898h21.526v21.511z" id="XMLID_388_" style="animation-play-state:paused" ></path>
<path d="M71.506 14.86h13.592v13.586H71.506z" id="XMLID_389_" style="animation-play-state:paused" ></path>
<path d="M7.5 92.424h28.322V64.12H7.5v28.304zm3.398-24.908h21.526v21.511H10.898V67.516z" id="XMLID_392_" style="animation-play-state:paused" ></path>
<path d="M14.862 71.479h13.592v13.586H14.862z" id="XMLID_393_" style="animation-play-state:paused" ></path>
<path d="M40.556 7.542h4.72v4.72h-4.72z" id="XMLID_394_" style="animation-play-state:paused" ></path>
<path d="M54.737 12.233h4.721v-4.72H50.017v9.44h4.72z" id="XMLID_395_" style="animation-play-state:paused" ></path>
<path d="M45.297 16.953h4.72v4.72h-4.72z" id="XMLID_396_" style="animation-play-state:paused" ></path>
<path d="M40.576 26.394v4.72h4.721v-9.44h-4.721z" id="XMLID_397_" style="animation-play-state:paused" ></path>
<path d="M50.017 26.394h4.72v4.72h-4.72z" id="XMLID_398_" style="animation-play-state:paused" ></path>
<path d="M54.737 21.674h4.72v4.72h-4.72z" id="XMLID_399_" style="animation-play-state:paused" ></path>
<path d="M45.297 31.114h4.72v4.72h-4.72z" id="XMLID_400_" style="animation-play-state:paused" ></path>
<path d="M54.737 31.114h4.72v4.72h-4.72z" id="XMLID_401_" style="animation-play-state:paused" ></path>
<path d="M7.535 54.716h4.72v4.72h-4.72z" id="XMLID_402_" style="animation-play-state:paused" ></path>
<path d="M12.225 45.255v-4.72h-4.72V49.976h9.44v-4.721z" id="XMLID_403_" style="animation-play-state:paused" ></path>
<path d="M16.945 49.976h4.72v4.72h-4.72z" id="XMLID_411_" style="animation-play-state:paused" ></path>
<path d="M21.666 54.696v4.72h9.44v-4.72h-4.72z" id="XMLID_412_" style="animation-play-state:paused" ></path>
<path d="M26.386 45.255h4.72v4.72h-4.72z" id="XMLID_413_" style="animation-play-state:paused" ></path>
<path d="M21.666 40.535h4.72v4.72h-4.72z" id="XMLID_414_" style="animation-play-state:paused" ></path>
<path d="M31.106 49.976h4.72v4.72h-4.72z" id="XMLID_415_" style="animation-play-state:paused" ></path>
<path d="M31.106 40.535h4.72v4.72h-4.72z" id="XMLID_416_" style="animation-play-state:paused" ></path>
<path d="M73.589 45.295h4.72v4.72h-4.72z" id="XMLID_417_" style="animation-play-state:paused" ></path>
<path d="M87.75 45.295v-4.72h-9.44v4.72h4.72z" id="XMLID_418_" style="animation-play-state:paused" ></path>
<path d="M83.03 50.016h4.72v4.72h-4.72z" id="XMLID_419_" style="animation-play-state:paused" ></path>
<path d="M78.31 54.736h4.72v4.72h-4.72z" id="XMLID_420_" style="animation-play-state:paused" ></path>
<path d="M87.75 45.295h4.72v4.72h-4.72z" id="XMLID_421_" style="animation-play-state:paused" ></path>
<path d="M73.589 78.326h4.72v4.72h-4.72z" id="XMLID_422_" style="animation-play-state:paused" ></path>
<path d="M83.03 83.047h4.72v4.72h-4.72z" id="XMLID_423_" style="animation-play-state:paused" ></path>
<path d="M78.31 87.767h4.72v4.72h-4.72z" id="XMLID_424_" style="animation-play-state:paused" ></path>
<path d="M87.75 78.326h4.72v4.72h-4.72z" id="XMLID_425_" style="animation-play-state:paused" ></path>
<path d="M87.75 87.767h4.72v4.72h-4.72z" id="XMLID_426_" style="animation-play-state:paused" ></path>
<path d="M40.577 59.425h4.72v4.72h-4.72z" id="XMLID_427_" style="animation-play-state:paused" ></path>
<path d="M40.547 68.886v4.72H49.988v-4.72h-4.721z" id="XMLID_428_" style="animation-play-state:paused" ></path>
<path d="M49.988 64.165h4.72v4.72h-4.72z" id="XMLID_429_" style="animation-play-state:paused" ></path>
<path d="M59.428 68.886h4.72v4.72h-4.72z" id="XMLID_430_" style="animation-play-state:paused" ></path>
<path d="M50.017 54.716h4.72v-9.421h-4.72v-.02h-4.691v-4.72h-4.72v4.72h4.691v4.741h-4.721v4.72H50.017z" id="XMLID_431_" style="animation-play-state:paused" ></path>
<path d="M40.606 78.318h4.72v4.72h-4.72z" id="XMLID_433_" style="animation-play-state:paused" ></path>
<path d="M40.576 87.778v4.721H50.017v-4.721h-4.72z" id="XMLID_434_" style="animation-play-state:paused" ></path>
<path d="M92.471 59.456v-4.72H87.75v4.72h-4.691v4.721H92.5v-4.721z" id="XMLID_435_" style="animation-play-state:paused" ></path>
<path d="M87.78 68.897h4.72v4.72h-4.72z" id="XMLID_483_" style="animation-play-state:paused" ></path>
<path d="M68.869 64.165v-.008h4.779v-4.721h-4.72v.009h-.03v-.009h-.029v-4.7h4.72v-4.72H59.458v4.72h4.691v4.709H54.708v4.72H64.149v4.721h4.72z" id="XMLID_485_" style="animation-play-state:paused" ></path>
<path d="M54.708 40.575h14.151v4.72H54.708z" id="XMLID_172_" style="animation-play-state:paused" ></path>
<path d="M83.03 73.606v-.009h.029v-9.42h-3.746v-.02h-4.72v4.72l-.974.02h-4.721v4.689h-4.719v.02h-.03v4.712H50.017V87.778h4.72v-4.72H64.149v4.72h-4.691v4.721h4.72v-.012h4.691V87.767h4.72v-4.72h-4.72v-.009h.029v-4.72h-.029v-.012h.03v-4.689h9.411v4.709h9.44v-4.72z" id="XMLID_179_" style="animation-play-state:paused" ></path>
<metadata xmlns:d="https://loading.io/stock/" style="animation-play-state:paused" ><d:name style="animation-play-state:paused" >qr code,bar code,encode,scan</d:name>
<d:tags style="animation-play-state:paused" >cc-by,qr code,bar code,encode,scan</d:tags>
<d:license style="animation-play-state:paused" >by</d:license>
<d:slug style="animation-play-state:paused" >jzb00u</d:slug></metadata></g><!-- generated by https://loading.io/ --></svg>